<?xml version="1.0" standalone="no"?>
<!DOCTYPE svg PUBLIC "-//W3C//DTD SVG 20010904//EN"
 "http://www.w3.org/TR/2001/REC-SVG-20010904/DTD/svg10.dtd">
<svg version="1.0" xmlns="http://www.w3.org/2000/svg"
 width="400.000000pt" height="400.000000pt" viewBox="0 0 400.000000 400.000000"
 preserveAspectRatio="xMidYMid meet">
<metadata>
Created by potrace 1.16, written by Peter Selinger 2001-2019
</metadata>
<g transform="translate(0.000000,400.000000) scale(0.100000,-0.100000)"
fill="#000000" stroke="none">
<path d="M1710 3451 c-430 -192 -868 -395 -1030 -477 -147 -74 -192 -108 -226
-174 -23 -42 -68 -102 -108 -141 -22 -22 -25 -29 -12 -29 9 0 16 -2 16 -5 0
-9 -70 -117 -95 -147 -12 -14 -55 -93 -95 -175 -41 -81 -82 -158 -93 -170 -11
-12 -17 -29 -14 -37 3 -8 100 -61 215 -117 l209 -101 7 -66 c3 -37 6 -206 6
-375 0 -205 4 -315 11 -329 16 -30 559 -287 1261 -597 280 -123 266 -123 546
0 639 283 1249 567 1258 588 4 9 10 189 13 400 l6 383 135 62 c166 76 260 127
274 148 8 13 -1 39 -41 116 -69 131 -244 441 -324 572 -75 124 -49 106 -484
311 -598 280 -1077 489 -1120 488 -16 0 -158 -58 -315 -128z m760 -184 c491
-225 798 -370 842 -397 l31 -18 -149 -72 c-212 -102 -652 -306 -904 -418 -155
-69 -226 -96 -255 -96 -29 0 -99 26 -255 96 -252 112 -691 315 -905 417 l-149
72 29 18 c70 42 1274 600 1285 595 3 -1 196 -90 430 -197z m-1451 -692 c400
-181 676 -311 814 -382 l107 -56 -31 -56 c-66 -120 -300 -507 -322 -533 l-22
-26 -340 154 c-622 283 -995 456 -1001 465 -9 15 169 327 303 531 l63 97 57
-25 c31 -14 199 -90 372 -169z m2597 -17 c164 -274 226 -388 220 -403 -9 -24
-353 -191 -986 -477 -365 -165 -336 -155 -361 -132 -50 45 -364 593 -348 608
8 8 937 436 1309 603 22 10 28 8 50 -17 14 -16 66 -97 116 -182z m-1642 -1595
c-3 -227 -8 -413 -10 -413 -12 0 -1132 514 -1265 581 l-76 38 -6 53 c-11 85
-8 576 3 583 5 3 121 -45 257 -106 706 -317 734 -329 759 -308 9 7 68 101 132
208 63 108 134 225 156 261 l41 65 8 -275 c4 -151 5 -461 1 -687z m288 703
c67 -115 135 -226 151 -248 25 -36 31 -39 60 -33 42 9 175 67 477 205 421 193
492 223 501 208 10 -15 10 -510 1 -583 l-7 -50 -70 -34 c-312 -150 -1266 -583
-1273 -577 -9 9 -15 915 -7 1140 9 271 -11 274 167 -28z"/>
</g>
</svg>
